<?xml version="1.0" encoding="utf-8"?>
<!-- Generator: Adobe Illustrator 19.0.0, SVG Export Plug-In . SVG Version: 6.00 Build 0)  -->
<svg version="1.1" id="Layer_1" xmlns="http://www.w3.org/2000/svg" xmlns:xlink="http://www.w3.org/1999/xlink" x="0px" y="0px"
	 viewBox="0 0 457.9 439.1" style="enable-background:new 0 0 457.9 439.1;" xml:space="preserve">
<style type="text/css">
	.st0{fill:#222223;}
	.st1{fill:none;stroke:#58777C;stroke-width:5;stroke-miterlimit:10;}
	.st2{fill:#F9E0A0;}
	.st3{fill:#EACB85;}
	.st4{fill:#FAE6C0;}
	.st5{fill:#97D3DC;}
	.st6{fill:#0193B5;}
	.st7{fill:#FCC938;}
	.st8{fill:#F2B319;}
	.st9{fill:#E2A50C;}
	.st10{fill:#D5980E;}
	.st11{fill:#351C10;}
	.st12{fill:#502811;}
	.st13{fill:#87521B;}
	.st14{fill:none;stroke:#E44793;stroke-width:0.4;stroke-miterlimit:10;}
	.st15{fill:#7C4512;}
	.st16{fill:#AFAFAF;}
	.st17{fill:#21110C;}
	.st18{fill:#D29313;}
	.st19{fill:#E0E0DF;stroke:#E22285;stroke-width:0.2;stroke-miterlimit:10;}
</style>
<g>
	<path class="st0" d="M440.7,217.1c0,113-95.3,204.6-212.8,204.6c-117.5,0-212.8-91.6-212.8-204.6c0-113,95.3-204.6,212.8-204.6
		C345.4,12.5,440.7,104.1,440.7,217.1z"/>
	<path class="st1" d="M411.6,217.1c0,97.6-82.2,176.6-183.7,176.6c-101.5,0-183.7-79.1-183.7-176.6c0-97.6,82.2-176.6,183.7-176.6
		C329.4,40.4,411.6,119.5,411.6,217.1z"/>
	<g>
		<path class="st2" d="M138.9,184.6c0,0-31.1,0.4-24,35.1l115.8,40.4L138.9,184.6z"/>
		<polygon class="st3" points="230.7,260.1 135.2,207.4 138.9,184.6 		"/>
		<polygon class="st4" points="135.2,207.4 114.9,219.7 230.7,260.1 		"/>
	</g>
	<g>
		<path class="st2" d="M322,184.6c0,0,31.1,0.4,24,35.1l-115.8,40.4L322,184.6z"/>
		<polygon class="st3" points="230.2,260.1 325.8,207.4 322,184.6 		"/>
		<polygon class="st4" points="325.8,207.4 346.1,219.7 230.2,260.1 		"/>
	</g>
	<g>
		<g>
			<path class="st2" d="M139.2,335.6c0,0-31.1-0.4-24-35.1L231,260.1L139.2,335.6z"/>
			<polygon class="st3" points="231,260.1 135.4,312.8 139.2,335.6 			"/>
			<polygon class="st4" points="135.4,312.8 115.2,300.5 231,260.1 			"/>
		</g>
		<g>
			<path class="st2" d="M322.3,335.6c0,0,31.1-0.4,24-35.1l-115.8-40.4L322.3,335.6z"/>
			<polygon class="st3" points="230.5,260.1 326,312.8 322.3,335.6 			"/>
			<polygon class="st4" points="326,312.8 346.3,300.5 230.5,260.1 			"/>
		</g>
	</g>
	<path class="st5" d="M181.7,127.3c0,0-6.4-4.9,0-14.9c0,0,28.9-18.5,27.4-33c0,0,23,15.5,10.4,47.9c0,0-9.3,12.1-19.6,11.3
		C200,138.6,188.1,135.9,181.7,127.3z"/>
	<path class="st5" d="M214.6,92.7c0,0,4.7-23.8,16.4-28.5c0,0-3.2,17,12.6,43.2c0,0,10.2,29.6-16.6,32.3c0,0-17.4-0.6-14.5-21.9
		L214.6,92.7z"/>
	<path class="st5" d="M230,73.3c0,0,23.8,14.5,27.9,27c0,0,9.1,23-2.1,36c0,0-28.9,14.9-29.1-1.3"/>
	<path class="st5" d="M240.4,134.4l13.2,9.8l12.6-1.6c7-0.6,11.3-11.1,11.3-11.1c9.8-22.5-26.5-41.5-26.5-41.5"/>
	<path class="st6" d="M209.1,79.5c0,0,11.2,39.1-21.2,53.7c0,0-15.6-8.2-6.3-20.7C181.7,112.5,209.1,95,209.1,79.5z"/>
	<path class="st6" d="M231,64.2c0,0-8.1,1.4-14.9,22.5c0,0,17.6,30.8-1.5,45.7c0,0,2,4.3,6.4,5.7c0,0,12.6,4.1,15.9-14.3
		c0,0,1.5-13.2,0.9-16.7c-0.8-4.5-4.4-14.4-5.1-22.2C231.8,75,231,65.7,231,64.2z"/>
	<path class="st6" d="M231.8,74.5c0,0,44.7,45.8,15.8,65.2c0,0-5.4-17.1-4-34.6C244.5,92.2,237.5,80.4,231.8,74.5z"/>
	<path class="st6" d="M250,89c0,0,41.6,39.9,3.5,55.2l18.1-1.6C271.7,142.5,301.6,118.3,250,89z"/>
	<polyline class="st7" points="293.6,125.2 285.2,140.2 281.7,154 279.3,154.1 276.9,164 273,164.2 270.5,171.4 262.7,171.5 
		258.9,183 202,183 199.2,171.5 192.6,171.5 190,164 186,164.1 183.9,154.1 181,154.1 177.4,140.2 168.3,125.2 	"/>
	<polygon class="st8" points="177.4,140.2 285.2,140.2 281.7,154 181,154.1 	"/>
	<polyline class="st9" points="230.6,125.2 230.6,140.2 285.2,140.2 294.8,125.2 	"/>
	<polygon class="st10" points="230.6,140.2 230.6,154 281.7,154 285.2,140.2 	"/>
	<polyline class="st9" points="230.6,154 230.6,183 258.9,183 262.7,171.5 271,171.4 273,164.2 276.9,164 279.3,154.1 	"/>
	<polyline class="st8" points="251.3,194.6 247.8,214.4 212.1,214.4 208.4,194.6 	"/>
	<polyline class="st11" points="200.1,189.4 204.5,194.6 255.4,194.8 261,189.2 	"/>
	<polyline class="st12" points="200,183 260.7,183 260.7,186.6 262.5,186.6 262.5,189.6 196.4,189.6 196.4,186.8 199.2,186.8 
		199.6,183 	"/>
	<polyline class="st9" points="230.6,194.8 230.6,214.4 247.8,214.4 251.3,194.8 	"/>
	<polyline class="st13" points="245.1,214.4 240.4,317.7 218.9,317.7 216.1,214.4 	"/>
	<polygon class="st8" points="212,317.7 216.4,322.1 241.9,322.1 246.5,317.7 	"/>
	<rect x="217.3" y="322.1" class="st11" width="24" height="13.8"/>
	<path class="st14" d="M285.2,154.1"/>
	<path class="st14" d="M179.3,154.1"/>
	<polygon class="st10" points="230.6,171.5 230.6,183 260.6,183 262.7,171.5 	"/>
	<polygon class="st8" points="199.2,171.5 230.7,171.5 230.6,183 202,183 	"/>
	<polyline class="st9" points="230.6,317.8 230.6,322.1 241.9,322.1 246.5,317.7 	"/>
	<polyline class="st15" points="230.6,214.4 230.6,317.7 240.4,317.7 245.1,214.4 	"/>
	<polygon class="st16" points="217.8,276.9 218.1,289.1 169.8,289.1 231,201.1 291.5,289.1 241.7,289.1 242.3,276.9 266.6,276.9 
		230.7,222.9 192.9,276.9 	"/>
	<polygon class="st17" points="230.6,322.1 230.6,333.7 241.3,336.7 241.3,335.6 241.3,322.1 	"/>
	<path class="st8" d="M247.8,344.1c0,6-8,10.9-18,10.9c-9.9,0-18-4.9-18-10.9c0-6,8-10.9,18-10.9
		C239.8,333.2,247.8,338.1,247.8,344.1z"/>
	<path class="st18" d="M247.8,344.1c0,6-7.7,10.1-15.7,10.9c-7.4,0.8-7.7-22.2,0.6-21.7C240.3,333.9,247.8,338.1,247.8,344.1z"/>
	<path class="st19" d="M297.6,276.4"/>
	<path class="st19" d="M167.2,276.4"/>
</g>
</svg>
